# xmcd
#
# Track frame offsets:
#	182
#	17880
#	35010
#	50150
#	66877
#	83080
#	91457
#	105872
#	121535
#	144792
#	161382
#	183007
#	200832
#	216375
#	230485
#	241337
#
# Disc length: 3416 seconds
#
# Revision: 2
# Processed by: cddbd v1.5.1PL0 Copyright (c) Steve Scherf et al.
# Submitted via: EasyCDDAExtractor 6.5.0.1
#
DISCID=d20d5610
DTITLE=Cat Stevens - Where do the children play
DYEAR=1993
DGENRE=Country
TTITLE0=Where do the Children Play
TTITLE1=Hard-Headed Woman
TTITLE2=Wild World
TTITLE3=Sad Lisa
TTITLE4=Miles From Nowhere
TTITLE5=But i might die tonight
TTITLE6=Longer Boats
TTITLE7=Into White
TTITLE8=On the road to find out
TTITLE9=Father and Son
TTITLE10=Tea for the tillerman-
TTITLE11=Daytime
TTITLE12=Bad Brakes
TTITLE13=Randy
TTITLE14=The Artist
TTITLE15=Last Love song
EXTD=
EXTT0=
EXTT1=
EXTT2=
EXTT3=
EXTT4=
EXTT5=
EXTT6=
EXTT7=
EXTT8=
EXTT9=
EXTT10=Just Another night
EXTT11=
EXTT12=
EXTT13=
EXTT14=
EXTT15=
PLAYORDER=
